<svg width="25" height="24" viewBox="0 0 25 24" fill="none" xmlns="http://www.w3.org/2000/svg">
<g clip-path="url(#clip0_7_322)">
<path d="M6.13377 2.74535C5.88265 2.60584 5.59945 2.53432 5.31219 2.53786C5.02494 2.54141 4.74359 2.61989 4.49598 2.76556C4.24837 2.91122 4.04309 3.11902 3.90045 3.36838C3.7578 3.61774 3.68274 3.90002 3.68269 4.1873L3.68503 8.1655L-0.156679 12.0072L3.68911 15.853L3.69203 19.8574C3.69111 20.0735 3.73289 20.2875 3.81498 20.4873C3.89706 20.6871 4.01784 20.8688 4.17035 21.0217C4.27094 21.1219 4.38384 21.209 4.50634 21.2807C4.7524 21.4278 5.03286 21.5074 5.31948 21.5116C5.6061 21.5158 5.88877 21.4444 6.13904 21.3047L23.1636 12.0195L6.13377 2.74535ZM5.33638 4.19138L18.1973 11.1958L3.00255 11.1836L5.3358 8.85031L5.33638 4.19138ZM5.34573 19.8615L5.33931 15.1699L3.00605 12.8367L18.2043 12.8431L5.34573 19.8615Z" fill="#374957"/>
</g>
<defs>
<clipPath id="clip0_7_322">
<rect width="24" height="24" fill="white" transform="translate(0.144043)"/>
</clipPath>
</defs>
</svg>
