<svg width="22" height="22" viewBox="0 0 22 22" fill="none" xmlns="http://www.w3.org/2000/svg">
<g clip-path="url(#clip0_13_520)">
<path d="M10.0201 2.52107C9.82333 1.79715 9.39384 1.15808 8.79787 0.702467C8.20189 0.24685 7.47256 0 6.72237 0C5.97219 0 5.24286 0.24685 4.64688 0.702467C4.05091 1.15808 3.62142 1.79715 3.42467 2.52107H0V4.3544H3.42467C3.62142 5.07832 4.05091 5.71739 4.64688 6.17301C5.24286 6.62862 5.97219 6.87547 6.72237 6.87547C7.47256 6.87547 8.20189 6.62862 8.79787 6.17301C9.39384 5.71739 9.82333 5.07832 10.0201 4.3544H22V2.52107H10.0201ZM6.72192 5.0419C6.40464 5.0419 6.09449 4.94782 5.83069 4.77155C5.56689 4.59528 5.36128 4.34475 5.23986 4.05163C5.11844 3.7585 5.08668 3.43596 5.14857 3.12478C5.21047 2.8136 5.36325 2.52777 5.5876 2.30342C5.81195 2.07907 6.09778 1.92629 6.40896 1.86439C6.72014 1.8025 7.04268 1.83426 7.3358 1.95568C7.62893 2.0771 7.87946 2.28271 8.05573 2.54651C8.232 2.81031 8.32608 3.12046 8.32608 3.43774C8.32536 3.86297 8.15611 4.27057 7.85543 4.57125C7.55475 4.87193 7.14715 5.04118 6.72192 5.0419Z" fill="#374957"/>
<path d="M15.2781 7.5625C14.5287 7.56518 13.8007 7.81303 13.2054 8.26819C12.61 8.72336 12.1799 9.36085 11.9808 10.0833H0V11.9167H11.9808C12.1773 12.6408 12.6066 13.2801 13.2025 13.7359C13.7984 14.1917 14.5278 14.4386 15.2781 14.4386C16.0283 14.4386 16.7577 14.1917 17.3537 13.7359C17.9496 13.2801 18.3789 12.6408 18.5753 11.9167H22V10.0833H18.5753C18.3762 9.36085 17.9462 8.72336 17.3508 8.26819C16.7554 7.81303 16.0275 7.56518 15.2781 7.5625ZM15.2781 12.6042C14.9608 12.6042 14.6507 12.5101 14.3869 12.3338C14.1231 12.1575 13.9174 11.907 13.796 11.6139C13.6746 11.3208 13.6428 10.9982 13.7047 10.687C13.7666 10.3759 13.9194 10.09 14.1438 9.86568C14.3681 9.64134 14.6539 9.48855 14.9651 9.42666C15.2763 9.36476 15.5988 9.39653 15.892 9.51794C16.1851 9.63936 16.4356 9.84497 16.6119 10.1088C16.7882 10.3726 16.8822 10.6827 16.8822 11C16.8818 11.4253 16.7126 11.833 16.4119 12.1338C16.1111 12.4345 15.7034 12.6037 15.2781 12.6042Z" fill="#374957"/>
<path d="M6.72192 15.125C5.97203 15.1271 5.24345 15.3746 4.64754 15.8299C4.05162 16.2851 3.62115 16.9229 3.42192 17.6458H0V19.4792H3.42467C3.62142 20.2031 4.05091 20.8421 4.64688 21.2978C5.24286 21.7534 5.97219 22.0002 6.72237 22.0002C7.47256 22.0002 8.20189 21.7534 8.79787 21.2978C9.39384 20.8421 9.82333 20.2031 10.0201 19.4792H22V17.6458H10.0201C9.82093 16.9232 9.39074 16.2856 8.79519 15.8304C8.19965 15.3752 7.47149 15.1275 6.72192 15.125ZM6.72192 20.1667C6.40464 20.1667 6.09449 20.0726 5.83069 19.8963C5.56689 19.72 5.36128 19.4695 5.23986 19.1764C5.11844 18.8833 5.08668 18.5607 5.14857 18.2495C5.21047 17.9384 5.36325 17.6525 5.5876 17.4282C5.81195 17.2038 6.09778 17.0511 6.40896 16.9892C6.72014 16.9273 7.04268 16.959 7.3358 17.0804C7.62893 17.2019 7.87946 17.4075 8.05573 17.6713C8.232 17.9351 8.32608 18.2452 8.32608 18.5625C8.32536 18.9877 8.15611 19.3953 7.85543 19.696C7.55475 19.9967 7.14715 20.1659 6.72192 20.1667Z" fill="#374957"/>
</g>
<defs>
<clipPath id="clip0_13_520">
<rect width="22" height="22" fill="white"/>
</clipPath>
</defs>
</svg>
