<svg width="13" height="15" viewBox="0 0 13 15" fill="none" xmlns="http://www.w3.org/2000/svg">
<g id="01 align center">
<path id="Vector" d="M12.125 15.0004H10.875V11.8485C10.8745 11.3585 10.6796 10.8887 10.3331 10.5422C9.98667 10.1957 9.51688 10.0009 9.02687 10.0004H3.97312C3.48312 10.0009 3.01333 10.1957 2.66685 10.5422C2.32037 10.8887 2.1255 11.3585 2.125 11.8485V15.0004H0.875V11.8485C0.875992 11.0271 1.20272 10.2397 1.78352 9.65888C2.36431 9.07809 3.15176 8.75136 3.97312 8.75037H9.02687C9.84824 8.75136 10.6357 9.07809 11.2165 9.65888C11.7973 10.2397 12.124 11.0271 12.125 11.8485V15.0004Z" fill="#374957"/>
<path id="Vector_2" d="M6.5 7.5C5.75832 7.5 5.0333 7.28007 4.41661 6.86801C3.79993 6.45596 3.31928 5.87029 3.03545 5.18506C2.75162 4.49984 2.67736 3.74584 2.82206 3.01841C2.96675 2.29098 3.3239 1.6228 3.84835 1.09835C4.3728 0.573904 5.04098 0.216751 5.76841 0.0720569C6.49584 -0.0726377 7.24984 0.00162482 7.93507 0.285453C8.62029 0.569282 9.20596 1.04993 9.61801 1.66661C10.0301 2.2833 10.25 3.00832 10.25 3.75C10.249 4.74426 9.8536 5.69751 9.15056 6.40056C8.44751 7.1036 7.49426 7.49901 6.5 7.5ZM6.5 1.25C6.00555 1.25 5.5222 1.39662 5.11108 1.67133C4.69995 1.94603 4.37952 2.33648 4.1903 2.79329C4.00108 3.25011 3.95158 3.75277 4.04804 4.23773C4.1445 4.72268 4.3826 5.16814 4.73223 5.51777C5.08187 5.8674 5.52732 6.1055 6.01228 6.20197C6.49723 6.29843 6.9999 6.24892 7.45671 6.0597C7.91353 5.87048 8.30397 5.55005 8.57868 5.13893C8.85338 4.7278 9 4.24445 9 3.75C9 3.08696 8.73661 2.45108 8.26777 1.98223C7.79893 1.51339 7.16304 1.25 6.5 1.25Z" fill="#374957"/>
</g>
</svg>
